<svg width="46" height="46" viewBox="0 0 46 46" fill="none" xmlns="http://www.w3.org/2000/svg">
<g clip-path="url(#clip0_0_294)">
<path d="M45.3072 28.5643C42.2352 40.8858 29.7549 48.3838 17.4319 45.3119C5.11468 42.2399 -2.38404 29.7596 0.688616 17.4387C3.75912 5.11577 16.2388 -2.38367 28.5581 0.688272C40.8804 3.76021 48.3784 16.242 45.3065 28.5643H45.3072Z" fill="#0434AE"/>
<g filter="url(#filter0_d_0_294)">
<path d="M22.2519 10.0799C22.8888 9.7478 23.6662 10.5182 23.3278 11.1545C23.1313 11.6732 22.3862 11.8111 22.0056 11.4157C21.6023 11.0363 21.7338 10.2863 22.2519 10.0799ZM15.4018 10.8183C15.7887 10.6591 16.2784 11.0135 16.239 11.4352C16.28 11.8929 15.7203 12.2298 15.326 12.0123C14.8035 11.8099 14.8633 10.9618 15.4018 10.8183ZM29.4316 12.0251C28.827 11.9521 28.7313 11.0015 29.3134 10.8101C29.7649 10.5899 30.1791 11.0028 30.2451 11.4308C30.1504 11.7962 29.8445 12.1308 29.4316 12.0251ZM16.9604 13.7338C17.6072 13.3247 18.5302 13.934 18.4307 14.6852C18.3971 15.4438 17.3895 15.8833 16.8211 15.3705C16.2714 14.9677 16.3547 14.0436 16.9604 13.7338ZM26.8343 14.1679C27.1229 13.4242 28.2921 13.4017 28.6206 14.1257C28.9452 14.689 28.5459 15.3867 27.9675 15.5782C27.2013 15.7213 26.4736 14.893 26.8343 14.1679ZM21.427 15.536C21.4207 14.8968 22.0029 14.4205 22.6104 14.377C23.0134 14.4578 23.4526 14.6294 23.6254 15.036C23.9476 15.5969 23.6615 16.3692 23.0794 16.6267C22.8132 16.7758 22.4985 16.7199 22.2086 16.7025C21.7655 16.485 21.3924 16.0583 21.427 15.536ZM11.2399 16.4674C11.8307 16.1042 12.6279 16.7671 12.4042 17.4089C12.281 17.9641 11.5347 18.19 11.1081 17.8355C10.6527 17.5034 10.7249 16.705 11.2399 16.4674ZM33.1153 16.4663C33.6166 16.077 34.4438 16.5235 34.3841 17.1564C34.4177 17.7336 33.7025 18.1688 33.2049 17.8716C32.6568 17.6253 32.6009 16.7821 33.1153 16.4663ZM24.2918 17.6154C25.119 17.3182 26.1016 17.6738 26.5731 18.4113C27.195 19.3129 26.8641 20.686 25.8989 21.2034C24.8989 21.8153 23.4385 21.2966 23.0692 20.1798C22.6499 19.18 23.2607 17.9288 24.2918 17.6154ZM19.4382 17.7137C20.355 17.2809 21.5889 17.644 22.0317 18.5818C22.5529 19.4947 22.1499 20.7658 21.2182 21.2371C20.2853 21.7669 18.9692 21.3653 18.5178 20.3852C18.0115 19.4374 18.4611 18.1501 19.4382 17.7137ZM14.5784 19.3752C14.6481 18.7845 15.2053 18.4001 15.7675 18.3603C16.3732 18.4334 16.8571 18.9038 16.923 19.5169C16.8833 20.1238 16.4143 20.717 15.7712 20.7133C15.0636 20.7743 14.4432 20.0703 14.5784 19.3752ZM28.9328 18.4888C29.6592 18.0659 30.6679 18.6815 30.6356 19.516C30.6855 20.4002 29.5691 21.0234 28.8457 20.5047C28.0943 20.0728 28.1529 18.8565 28.9328 18.4888ZM17.463 21.6052C18.3126 21.3714 19.2841 21.7719 19.7008 22.5528C20.1572 23.3388 19.9706 24.4308 19.2617 25.0073C18.3525 25.853 16.6757 25.5134 16.1918 24.3594C15.6357 23.3014 16.3112 21.8836 17.463 21.6052ZM26.6689 21.6008C27.4948 21.3645 28.4651 21.6829 28.9091 22.4353C29.4962 23.2959 29.2159 24.5794 28.3419 25.1342C27.4265 25.7783 26.0084 25.4401 25.5046 24.4329C24.8939 23.391 25.5084 21.9186 26.6689 21.6008ZM11.9986 22.5826C12.7325 22.305 13.546 23.1149 13.2487 23.8425C13.0671 24.5053 12.1329 24.7503 11.6503 24.2616C11.0856 23.8027 11.2947 22.7816 11.9986 22.5826ZM31.8907 23.6385C31.8695 23.0304 32.3144 22.4919 32.9379 22.4583C33.4405 22.5379 33.9293 22.9433 33.8895 23.4905C33.9355 24.2131 33.0648 24.7043 32.4491 24.3648C32.1605 24.2181 32.0125 23.9221 31.8907 23.6385ZM8.39013 22.9395C8.83165 22.7468 9.37779 23.1295 9.27698 23.6198C9.25331 24.175 8.43366 24.3884 8.13254 23.9246C7.86649 23.6024 8.02574 23.1057 8.39013 22.9395ZM36.2292 22.9284C36.5401 22.7071 37.0389 22.8662 37.1621 23.2294C37.371 23.6261 36.9879 24.1696 36.5414 24.1025C35.9147 24.1596 35.7119 23.2044 36.2292 22.9284ZM19.8612 25.5935C21.023 25.2914 22.2719 26.2602 22.2792 27.4565C22.355 28.6653 21.125 29.7373 19.9357 29.4581C19.0164 29.3101 18.2951 28.4246 18.3249 27.4956C18.3224 26.6072 18.9929 25.7814 19.8612 25.5935ZM24.4623 25.591C25.6415 25.2614 26.9277 26.2476 26.909 27.4715C26.9712 28.658 25.7796 29.6939 24.6151 29.4585C23.5193 29.3168 22.7108 28.1129 23.0167 27.0496C23.1712 26.341 23.7632 25.7647 24.4623 25.591ZM15.591 26.3274C16.407 26.1882 17.172 27.0985 16.8411 27.8733C16.5997 28.699 15.3982 28.9229 14.8669 28.2485C14.2438 27.6008 14.709 26.4168 15.591 26.3274ZM29.0844 26.3638C29.812 26.059 30.7052 26.6884 30.6492 27.4781C30.6784 28.3474 29.5758 28.9469 28.8643 28.4395C28.0584 27.9839 28.205 26.6433 29.0844 26.3638ZM32.856 30.1467C32.5711 29.6156 33.0886 28.9117 33.6782 29.01C33.9718 29.005 34.177 29.2363 34.3649 29.4304C34.4035 29.7451 34.4682 30.1205 34.207 30.3631C33.8523 30.8121 33.0487 30.6839 32.856 30.1467ZM11.2374 29.1579C11.7885 28.791 12.5816 29.3382 12.4577 29.9825C12.3918 30.5523 11.674 30.8779 11.2012 30.5546C10.6937 30.2611 10.7124 29.4254 11.2374 29.1579ZM22.1251 30.3507C22.8465 30.0323 23.7657 30.6604 23.6973 31.4551C23.7508 32.3331 22.6139 32.9412 21.9085 32.4139C21.125 31.9612 21.2556 30.6291 22.1251 30.3507ZM17.0823 31.5271C17.6968 31.2038 18.5214 31.7622 18.4655 32.4499C18.4842 33.0146 17.9331 33.4958 17.3758 33.4124C16.9143 33.4025 16.6133 32.9887 16.4653 32.5953C16.4729 32.1664 16.6494 31.6888 17.0823 31.5271ZM27.297 31.537C27.9289 31.1465 28.827 31.7074 28.7673 32.4429C28.7835 33.2115 27.7685 33.7039 27.1801 33.199C26.6105 32.8032 26.68 31.8517 27.297 31.537ZM29.0733 35.9285C28.7922 35.5032 29.1232 34.9908 29.5796 34.8938C29.9466 34.9684 30.3347 35.2444 30.2575 35.6699C30.204 36.2457 29.3619 36.4223 29.0733 35.9285ZM14.9727 35.5591C15.0846 35.2221 15.3558 34.887 15.7526 34.9747C16.331 35.0158 16.5027 35.8876 15.9964 36.1562C15.5412 36.4632 15.013 36.0429 14.9727 35.5591ZM21.7754 35.9459C21.8862 35.4472 22.5317 35.2047 22.9571 35.4696C23.2382 35.5902 23.3203 35.9048 23.3925 36.1722C23.354 36.3114 23.3195 36.4508 23.2856 36.59C23.1114 36.7965 22.8876 37.0029 22.5977 36.9955C22.059 37.0586 21.5731 36.4496 21.7754 35.9459Z" fill="white"/>
</g>
</g>
<defs>
<filter id="filter0_d_0_294" x="4" y="10" width="37.2207" height="35" filterUnits="userSpaceOnUse" color-interpolation-filters="sRGB">
<feFlood flood-opacity="0" result="BackgroundImageFix"/>
<feColorMatrix in="SourceAlpha" type="matrix" values="0 0 0 0 0 0 0 0 0 0 0 0 0 0 0 0 0 0 127 0" result="hardAlpha"/>
<feOffset dy="4"/>
<feGaussianBlur stdDeviation="2"/>
<feColorMatrix type="matrix" values="0 0 0 0 0 0 0 0 0 0 0 0 0 0 0 0 0 0 0.25 0"/>
<feBlend mode="normal" in2="BackgroundImageFix" result="effect1_dropShadow_0_294"/>
<feBlend mode="normal" in="SourceGraphic" in2="effect1_dropShadow_0_294" result="shape"/>
</filter>
<clipPath id="clip0_0_294">
<rect width="46" height="46" fill="white"/>
</clipPath>
</defs>
</svg>
