<svg width="46" height="46" viewBox="0 0 46 46" fill="none" xmlns="http://www.w3.org/2000/svg">
<g clip-path="url(#clip0_0_263)">
<path d="M45.3072 28.5643C42.2352 40.8858 29.7549 48.3838 17.4319 45.3119C5.11468 42.2399 -2.38404 29.7596 0.688616 17.4387C3.75912 5.11577 16.2388 -2.38367 28.5581 0.688272C40.8804 3.76021 48.3784 16.242 45.3065 28.5643H45.3072Z" fill="#26A17B"/>
<g clip-path="url(#clip1_0_263)">
<path d="M22.6 2C34.1967 2 43.6 11.4033 43.6 23C43.6 34.5967 34.1967 44 22.6 44C11.0033 44 1.60001 34.6025 1.60001 23C1.60001 11.3975 11.0033 2 22.6 2Z" fill="#26A17B"/>
<path d="M25.5568 20.6584V17.5317H32.7026V12.7717H13.2485V17.5317H20.3943V20.6584C14.5901 20.9267 10.221 22.0759 10.221 23.4526C10.221 24.8292 14.5901 25.9784 20.3943 26.2467V36.2509H25.5626V26.2467C31.361 25.9784 35.7185 24.8292 35.7185 23.4526C35.7126 22.0759 31.3551 20.9267 25.5568 20.6584ZM25.5626 25.4009C25.4168 25.4067 24.6701 25.4534 23.0018 25.4534C21.666 25.4534 20.7326 25.4184 20.4001 25.4009V25.4067C15.2726 25.1792 11.4401 24.2867 11.4401 23.2192C11.4401 22.1517 15.2668 21.2592 20.4001 21.0317V24.5084C20.7385 24.5317 21.6951 24.5901 23.0251 24.5901C24.6176 24.5901 25.4168 24.5259 25.5685 24.5084V21.0201C30.6901 21.2476 34.511 22.1401 34.511 23.2076C34.4993 24.2751 30.6785 25.1676 25.5626 25.4009Z" fill="white"/>
</g>
</g>
<defs>
<clipPath id="clip0_0_263">
<rect width="46" height="46" fill="white"/>
</clipPath>
<clipPath id="clip1_0_263">
<rect width="42" height="42" fill="white" transform="translate(1.60001 2)"/>
</clipPath>
</defs>
</svg>
