<svg width="46" height="46" viewBox="0 0 46 46" fill="none" xmlns="http://www.w3.org/2000/svg">
<g clip-path="url(#clip0_0_317)">
<path d="M45.3098 28.5638C42.2378 40.8854 29.7574 48.3834 17.4345 45.3114C5.11726 42.2395 -2.38146 29.7591 0.691195 17.4383C3.7617 5.11534 16.2414 -2.38409 28.5607 0.687845C40.883 3.75978 48.381 16.2416 45.309 28.5638H45.3098Z" fill="#F7931A"/>
<path d="M33.1412 19.7233C33.5983 16.6628 31.2681 15.0176 28.0819 13.9201L29.1155 9.77432L26.5912 9.14541L25.585 13.1819C24.9223 13.0166 24.2409 12.8606 23.5639 12.7061L24.5773 8.64301L22.0552 8.0141L21.0209 12.1584C20.4718 12.0333 19.9327 11.9097 19.4095 11.7796L19.4124 11.7667L15.9322 10.8977L15.2609 13.593C15.2609 13.593 17.1332 14.0221 17.0937 14.0487C18.1157 14.3039 18.3012 14.9802 18.2695 15.5164L17.0922 20.2393C17.1627 20.2573 17.2539 20.2832 17.3546 20.3234L17.0886 20.2573L15.4377 26.8734C15.3126 27.1839 14.9956 27.6496 14.2812 27.4728C14.3064 27.5095 12.447 27.015 12.447 27.015L11.1942 29.9043L14.4789 30.723C15.0898 30.8761 15.6885 31.0364 16.2772 31.1873L15.2328 35.3812L17.7535 36.0101L18.7885 31.8615C19.4763 32.0484 20.1448 32.2209 20.7988 32.3833L19.7681 36.5125L22.2917 37.1414L23.336 32.9562C27.6392 33.7705 30.8757 33.442 32.2363 29.5507C33.3338 26.417 32.1824 24.6093 29.9183 23.4298C31.5671 23.0482 32.8091 21.9636 33.1405 19.7233H33.1412ZM27.3747 27.8085C26.5941 30.9422 21.3185 29.2488 19.6071 28.8233L20.9929 23.2681C22.7035 23.6951 28.1883 24.5403 27.3754 27.8085H27.3747ZM28.1545 19.678C27.4429 22.5285 23.0514 21.0803 21.6261 20.7252L22.8825 15.6868C24.3078 16.0418 28.8963 16.7045 28.1545 19.678Z" fill="white"/>
</g>
<defs>
<clipPath id="clip0_0_317">
<rect width="46" height="46" fill="white"/>
</clipPath>
</defs>
</svg>
