<svg width="46" height="46" viewBox="0 0 46 46" fill="none" xmlns="http://www.w3.org/2000/svg">
<g clip-path="url(#clip0_0_229)">
<path d="M45.3072 28.5643C42.2352 40.8858 29.7549 48.3838 17.4319 45.3119C5.11468 42.2399 -2.38404 29.7596 0.688616 17.4387C3.75912 5.11577 16.2388 -2.38367 28.5581 0.688272C40.8804 3.76021 48.3784 16.242 45.3065 28.5643H45.3072Z" fill="#F2F2F2"/>
<g clip-path="url(#clip1_0_229)">
<path d="M22.6726 11L22.5051 11.5695V28.0964L22.6726 28.2637L30.3442 23.729L22.6726 11Z" fill="#343434"/>
<path d="M22.6737 11L15.0021 23.729L22.6737 28.2638V20.2421V11Z" fill="#A3A3A4"/>
<path d="M22.6727 29.7163L22.5782 29.8314V35.7186L22.6727 35.9944L30.3489 25.1839L22.6727 29.7163Z" fill="#3C3C3B"/>
<path d="M22.6727 35.9943V29.7161L15.0011 25.1838L22.6727 35.9943Z" fill="#A3A3A4"/>
<path d="M22.6727 28.2637L30.3441 23.7291L22.6727 20.2422V28.2637Z" fill="#141414"/>
<path d="M15.0011 23.729L22.6726 28.2637V20.2421L15.0011 23.729Z" fill="#393939"/>
</g>
</g>
<defs>
<clipPath id="clip0_0_229">
<rect width="46" height="46" fill="white"/>
</clipPath>
<clipPath id="clip1_0_229">
<rect width="15.35" height="25" fill="white" transform="translate(15 11)"/>
</clipPath>
</defs>
</svg>
